<svg width="35" height="36" viewBox="0 0 35 36" fill="none" xmlns="http://www.w3.org/2000/svg">
<path d="M33.9597 10.4567V10.458V25.542C33.9597 28.7245 33.0525 31.2025 31.4439 32.8822C29.8379 34.5591 27.4758 35.5 24.4442 35.5H10.0156C6.98389 35.5 4.62195 34.5591 3.01605 32.8801C1.4074 31.1983 0.5 28.7158 0.5 25.524V10.458C0.5 7.27551 1.40721 4.79752 3.01584 3.11783C4.62179 1.44094 6.98387 0.5 10.0156 0.5H24.4614C27.4932 0.5 29.8551 1.44098 31.4587 3.11761C33.065 4.79694 33.9681 7.27449 33.9597 10.4567ZM8.61924 27.95H25.8577C26.8608 27.95 27.6506 27.0936 27.6506 26.1C27.6506 25.1064 26.8608 24.25 25.8577 24.25H8.61924C7.61617 24.25 6.82635 25.1064 6.82635 26.1C6.82635 27.0936 7.61617 27.95 8.61924 27.95ZM8.61924 19.85H25.8577C26.8608 19.85 27.6506 18.9936 27.6506 18C27.6506 17.0064 26.8608 16.15 25.8577 16.15H8.61924C7.61617 16.15 6.82635 17.0064 6.82635 18C6.82635 18.9936 7.61617 19.85 8.61924 19.85ZM8.61924 11.75H25.8577C26.8608 11.75 27.6506 10.8936 27.6506 9.9C27.6506 8.90645 26.8608 8.05 25.8577 8.05H8.61924C7.61617 8.05 6.82635 8.90645 6.82635 9.9C6.82635 10.8936 7.61617 11.75 8.61924 11.75Z" fill="#D5E1F5" stroke="black"/>
</svg>
